# xmcd
#
# Track frame offsets:
#	187
#	35340
#	57322
#	78402
#	93260
#	122357
#	143027
#	161555
#	174855
#	198622
#
# Disc length: 3280 seconds
#
# Revision: 1
# Processed by: cddbd v1.5.1PL0 Copyright (c) Steve Scherf et al.
# Submitted via: CDex 1.50Beta5
#
DISCID=780cce0a
DTITLE=長谷川武 and Albatross - α波・1/fのゆらぎ〜大地からのおくりもの
DYEAR=2001
DGENRE=
TTITLE0=大地からのおくりもの
TTITLE1=黄金の森
TTITLE2=水辺の情景
TTITLE3=オアシス
TTITLE4=風のように
TTITLE5=緑のグラデーション
TTITLE6=森の天使たち
TTITLE7=大河
TTITLE8=大地の息吹
TTITLE9=From The Earth
EXTD=
EXTT0=
EXTT1=
EXTT2=
EXTT3=
EXTT4=
EXTT5=
EXTT6=
EXTT7=
EXTT8=
EXTT9=
PLAYORDER=
